<?xml version="1.0" encoding="UTF-8"?>
<svg xmlns="http://www.w3.org/2000/svg" xmlns:xlink="http://www.w3.org/1999/xlink" width="24px" height="24px" viewBox="0 0 24 23" version="1.1">
<g id="surface1">
<path style=" stroke:none;fill-rule:nonzero;fill:rgb(0%,0%,0%);fill-opacity:1;" d="M 11.066406 0.390625 C 10.511719 0.429688 10.449219 0.449219 10.449219 0.539062 C 10.453125 0.660156 10.6875 2.042969 10.707031 2.0625 C 10.71875 2.074219 10.875 2.050781 11.054688 2.011719 C 11.230469 1.972656 11.433594 1.941406 11.5 1.941406 L 11.621094 1.941406 L 11.597656 1.363281 C 11.5625 0.652344 11.535156 0.378906 11.488281 0.371094 C 11.46875 0.367188 11.277344 0.378906 11.066406 0.390625 Z M 11.066406 0.390625 "/>
<path style=" stroke:none;fill-rule:nonzero;fill:rgb(0%,0%,0%);fill-opacity:1;" d="M 12.546875 0.46875 C 12.511719 0.679688 12.449219 1.871094 12.464844 1.902344 C 12.476562 1.914062 12.589844 1.941406 12.714844 1.953125 C 12.839844 1.964844 13.035156 2 13.144531 2.027344 C 13.253906 2.054688 13.347656 2.070312 13.355469 2.0625 C 13.367188 2.054688 13.4375 1.695312 13.515625 1.265625 C 13.632812 0.648438 13.648438 0.480469 13.613281 0.457031 C 13.585938 0.441406 13.394531 0.417969 13.183594 0.410156 C 12.972656 0.394531 12.746094 0.382812 12.679688 0.371094 C 12.570312 0.359375 12.5625 0.367188 12.546875 0.46875 Z M 12.546875 0.46875 "/>
<path style=" stroke:none;fill-rule:nonzero;fill:rgb(0%,0%,0%);fill-opacity:1;" d="M 8.875 0.765625 C 8.617188 0.835938 8.410156 0.90625 8.410156 0.925781 C 8.410156 0.960938 9.058594 2.601562 9.109375 2.691406 C 9.140625 2.75 9.148438 2.746094 9.25 2.679688 C 9.308594 2.636719 9.480469 2.554688 9.628906 2.492188 C 9.777344 2.425781 9.914062 2.367188 9.925781 2.351562 C 9.9375 2.34375 9.855469 2.003906 9.742188 1.597656 C 9.46875 0.628906 9.46875 0.636719 9.402344 0.636719 C 9.367188 0.636719 9.132812 0.699219 8.875 0.765625 Z M 8.875 0.765625 "/>
<path style=" stroke:none;fill-rule:nonzero;fill:rgb(0%,0%,0%);fill-opacity:1;" d="M 14.578125 0.730469 C 14.5625 0.78125 14.457031 1.15625 14.339844 1.5625 C 14.222656 1.964844 14.125 2.3125 14.125 2.339844 C 14.125 2.359375 14.195312 2.414062 14.277344 2.453125 C 14.367188 2.492188 14.539062 2.597656 14.660156 2.691406 L 14.890625 2.855469 L 14.949219 2.726562 C 15.1875 2.167969 15.65625 0.96875 15.640625 0.933594 C 15.632812 0.910156 15.441406 0.84375 15.210938 0.78125 C 14.558594 0.609375 14.605469 0.613281 14.578125 0.730469 Z M 14.578125 0.730469 "/>
<path style=" stroke:none;fill-rule:nonzero;fill:rgb(0%,0%,0%);fill-opacity:1;" d="M 7.042969 1.414062 C 6.828125 1.511719 6.613281 1.617188 6.570312 1.644531 C 6.484375 1.707031 6.429688 1.605469 7.234375 2.847656 L 7.832031 3.765625 L 8.058594 3.546875 C 8.179688 3.429688 8.328125 3.292969 8.382812 3.257812 L 8.484375 3.183594 L 7.992188 2.207031 C 7.71875 1.671875 7.484375 1.234375 7.472656 1.234375 C 7.457031 1.234375 7.265625 1.316406 7.042969 1.414062 Z M 7.042969 1.414062 "/>
<path style=" stroke:none;fill-rule:nonzero;fill:rgb(0%,0%,0%);fill-opacity:1;" d="M 16.179688 1.984375 C 15.960938 2.390625 15.730469 2.835938 15.667969 2.964844 L 15.550781 3.207031 L 15.722656 3.3125 C 15.816406 3.367188 15.957031 3.480469 16.039062 3.558594 C 16.113281 3.640625 16.191406 3.703125 16.207031 3.703125 C 16.246094 3.703125 16.417969 3.449219 17.035156 2.503906 C 17.519531 1.765625 17.546875 1.710938 17.488281 1.664062 C 17.4375 1.625 16.613281 1.234375 16.582031 1.234375 C 16.582031 1.234375 16.398438 1.570312 16.179688 1.984375 Z M 16.179688 1.984375 "/>
<path style=" stroke:none;fill-rule:nonzero;fill:rgb(0%,0%,0%);fill-opacity:1;" d="M 5.261719 2.457031 C 5.0625 2.601562 4.863281 2.746094 4.828125 2.769531 C 4.761719 2.816406 4.773438 2.835938 5.046875 3.128906 C 5.457031 3.570312 7.019531 5.222656 7.117188 5.324219 L 7.203125 5.402344 L 7.246094 5.148438 C 7.269531 5.007812 7.324219 4.785156 7.371094 4.660156 L 7.453125 4.425781 L 7.160156 4.058594 C 6.492188 3.207031 5.664062 2.1875 5.648438 2.191406 C 5.636719 2.191406 5.460938 2.3125 5.261719 2.457031 Z M 5.261719 2.457031 "/>
<path style=" stroke:none;fill-rule:nonzero;fill:rgb(0%,0%,0%);fill-opacity:1;" d="M 18.046875 2.601562 C 17.863281 2.828125 17.464844 3.324219 17.167969 3.695312 L 16.632812 4.375 L 16.742188 4.699219 C 16.800781 4.878906 16.859375 5.078125 16.875 5.140625 C 16.886719 5.203125 16.902344 5.257812 16.914062 5.257812 C 16.933594 5.257812 16.96875 5.222656 17.621094 4.550781 C 18.683594 3.457031 19.257812 2.855469 19.257812 2.820312 C 19.257812 2.792969 18.71875 2.386719 18.488281 2.242188 L 18.390625 2.183594 Z M 18.046875 2.601562 "/>
<path style=" stroke:none;fill-rule:nonzero;fill:rgb(0%,0%,0%);fill-opacity:1;" d="M 11.488281 2.878906 C 10.472656 3.050781 9.34375 3.597656 8.777344 4.183594 C 8.101562 4.890625 8.011719 5.539062 8.371094 7.25 C 8.46875 7.734375 8.570312 8.265625 8.589844 8.429688 C 8.636719 8.785156 8.640625 9.3125 8.597656 9.3125 C 8.582031 9.3125 8.523438 9.265625 8.464844 9.207031 C 8.273438 9.007812 8.011719 9.042969 7.894531 9.277344 C 7.816406 9.421875 7.804688 9.789062 7.867188 10.046875 C 7.933594 10.320312 8.394531 11.195312 8.542969 11.320312 C 8.691406 11.445312 8.734375 11.453125 8.855469 11.359375 L 8.945312 11.292969 L 8.96875 11.6875 C 8.976562 11.90625 9.007812 12.171875 9.027344 12.277344 C 9.085938 12.527344 9.246094 12.859375 9.410156 13.054688 L 9.542969 13.210938 L 9.519531 13.503906 C 9.5 13.769531 9.480469 13.8125 9.34375 14.015625 C 9.257812 14.136719 9.152344 14.347656 9.101562 14.488281 L 9.015625 14.742188 L 8.265625 14.996094 C 7.476562 15.261719 5.40625 15.988281 4.519531 16.308594 L 3.992188 16.496094 L 3.542969 17.425781 C 3.292969 17.933594 3.082031 18.390625 3.074219 18.433594 C 3.046875 18.535156 3.308594 18.847656 3.925781 19.453125 C 6.210938 21.695312 9.425781 22.886719 12.644531 22.6875 C 15.171875 22.53125 17.328125 21.730469 19.246094 20.242188 C 19.753906 19.847656 20.460938 19.179688 20.804688 18.765625 L 21.035156 18.484375 L 20.738281 17.839844 C 20.570312 17.488281 20.359375 17.035156 20.265625 16.839844 L 20.089844 16.480469 L 19.15625 16.140625 C 18.1875 15.785156 16.675781 15.246094 15.691406 14.910156 L 15.128906 14.71875 L 15.007812 14.441406 C 14.941406 14.289062 14.824219 14.078125 14.75 13.96875 C 14.628906 13.800781 14.605469 13.738281 14.582031 13.496094 C 14.554688 13.226562 14.558594 13.21875 14.667969 13.066406 C 14.902344 12.753906 15.027344 12.359375 15.109375 11.714844 C 15.128906 11.554688 15.152344 11.410156 15.164062 11.402344 C 15.175781 11.390625 15.222656 11.402344 15.273438 11.421875 C 15.4375 11.496094 15.558594 11.402344 15.800781 11 C 16.140625 10.445312 16.25 10.144531 16.265625 9.71875 C 16.277344 9.394531 16.273438 9.355469 16.195312 9.242188 C 16.050781 9.039062 15.796875 9.0625 15.582031 9.300781 L 15.472656 9.421875 L 15.472656 9.203125 C 15.472656 8.867188 15.570312 8.292969 15.734375 7.691406 C 15.996094 6.714844 15.992188 6.726562 15.992188 6.085938 C 15.992188 5.1875 15.859375 4.726562 15.484375 4.335938 C 15.277344 4.117188 15.082031 4.023438 14.84375 4.019531 C 14.671875 4.019531 14.660156 4.015625 14.371094 3.730469 C 14.207031 3.570312 13.972656 3.375 13.855469 3.300781 C 13.214844 2.894531 12.332031 2.734375 11.488281 2.878906 Z M 11.488281 2.878906 "/>
<path style=" stroke:none;fill-rule:nonzero;fill:rgb(0%,0%,0%);fill-opacity:1;" d="M 3.644531 3.851562 C 3.441406 4.070312 3.28125 4.265625 3.289062 4.285156 C 3.316406 4.371094 7.304688 7.292969 7.339844 7.257812 C 7.347656 7.25 7.328125 7.105469 7.300781 6.933594 C 7.269531 6.753906 7.246094 6.550781 7.246094 6.472656 C 7.246094 6.347656 7.222656 6.3125 7 6.105469 C 6.773438 5.898438 4.265625 3.667969 4.09375 3.515625 C 4.011719 3.453125 4.011719 3.453125 3.644531 3.851562 Z M 3.644531 3.851562 "/>
<path style=" stroke:none;fill-rule:nonzero;fill:rgb(0%,0%,0%);fill-opacity:1;" d="M 18.988281 4.34375 C 18.425781 4.828125 17.746094 5.421875 17.472656 5.660156 L 16.976562 6.097656 L 16.953125 6.425781 C 16.9375 6.605469 16.910156 6.824219 16.894531 6.902344 C 16.878906 6.988281 16.878906 7.054688 16.894531 7.054688 C 16.960938 7.054688 20.746094 4.363281 20.800781 4.277344 C 20.824219 4.238281 20.105469 3.457031 20.046875 3.460938 C 20.023438 3.460938 19.546875 3.859375 18.988281 4.34375 Z M 18.988281 4.34375 "/>
<path style=" stroke:none;fill-rule:nonzero;fill:rgb(0%,0%,0%);fill-opacity:1;" d="M 19.914062 5.964844 C 19.0625 6.472656 17.992188 7.113281 17.53125 7.386719 L 16.691406 7.882812 L 16.640625 8.074219 L 16.585938 8.265625 L 16.746094 8.394531 L 16.90625 8.527344 L 17.816406 8.097656 C 19.582031 7.261719 22.0625 6.058594 22.085938 6.023438 C 22.109375 5.988281 21.703125 5.316406 21.554688 5.148438 L 21.460938 5.039062 Z M 19.914062 5.964844 "/>
<path style=" stroke:none;fill-rule:nonzero;fill:rgb(0%,0%,0%);fill-opacity:1;" d="M 2.390625 5.367188 C 2.132812 5.761719 1.980469 6.023438 2.007812 6.046875 C 2.042969 6.085938 5.140625 7.605469 6.144531 8.082031 L 7.179688 8.570312 L 7.359375 8.425781 C 7.542969 8.273438 7.542969 8.273438 7.464844 8.058594 C 7.445312 8.019531 7.242188 7.871094 7 7.726562 C 6.765625 7.582031 6.425781 7.375 6.242188 7.261719 C 6.066406 7.152344 5.671875 6.917969 5.371094 6.738281 C 5.070312 6.558594 4.628906 6.285156 4.386719 6.136719 C 3.132812 5.359375 2.664062 5.078125 2.625 5.078125 C 2.601562 5.078125 2.496094 5.210938 2.390625 5.367188 Z M 2.390625 5.367188 "/>
<path style=" stroke:none;fill-rule:nonzero;fill:rgb(0%,0%,0%);fill-opacity:1;" d="M 1.421875 7.136719 C 1.320312 7.355469 1.152344 7.78125 1.109375 7.925781 C 1.09375 7.992188 1.109375 8.007812 1.300781 8.0625 C 1.417969 8.09375 1.871094 8.226562 2.3125 8.359375 C 4.042969 8.882812 4.574219 9.039062 5.574219 9.328125 C 6.148438 9.488281 6.671875 9.636719 6.742188 9.648438 L 6.871094 9.671875 L 6.890625 9.359375 C 6.902344 9.1875 6.90625 9.042969 6.90625 9.042969 C 6.902344 9.039062 5.769531 8.59375 4.386719 8.050781 C 3.007812 7.507812 1.792969 7.027344 1.699219 6.988281 L 1.527344 6.914062 Z M 1.421875 7.136719 "/>
<path style=" stroke:none;fill-rule:nonzero;fill:rgb(0%,0%,0%);fill-opacity:1;" d="M 19.933594 7.9375 C 18.496094 8.496094 17.292969 8.96875 17.265625 8.980469 C 17.222656 9.007812 17.222656 9.078125 17.242188 9.320312 C 17.257812 9.492188 17.28125 9.628906 17.304688 9.628906 C 17.367188 9.628906 20.539062 8.730469 22.042969 8.285156 C 22.507812 8.148438 22.910156 8.027344 22.949219 8.019531 C 22.980469 8.011719 23.007812 7.988281 23.007812 7.976562 C 23.007812 7.894531 22.597656 6.910156 22.566406 6.917969 C 22.558594 6.917969 21.375 7.375 19.933594 7.9375 Z M 19.933594 7.9375 "/>
<path style=" stroke:none;fill-rule:nonzero;fill:rgb(0%,0%,0%);fill-opacity:1;" d="M 23.261719 8.9375 C 23.242188 8.953125 20.390625 9.5625 18.457031 9.960938 L 17.203125 10.21875 L 17.101562 10.527344 C 17.042969 10.695312 17.003906 10.839844 17.007812 10.84375 C 17.027344 10.859375 18.652344 10.675781 20.40625 10.460938 C 21.269531 10.355469 22.257812 10.238281 22.609375 10.195312 C 23.550781 10.09375 23.519531 10.097656 23.519531 9.992188 C 23.519531 9.875 23.332031 8.984375 23.304688 8.949219 C 23.289062 8.933594 23.273438 8.933594 23.261719 8.9375 Z M 23.261719 8.9375 "/>
<path style=" stroke:none;fill-rule:nonzero;fill:rgb(0%,0%,0%);fill-opacity:1;" d="M 0.785156 9.019531 C 0.769531 9.085938 0.640625 9.734375 0.601562 9.953125 C 0.582031 10.082031 0.582031 10.082031 0.71875 10.101562 C 0.84375 10.121094 1.625 10.21875 5.734375 10.722656 C 6.496094 10.816406 7.125 10.886719 7.128906 10.882812 C 7.136719 10.875 7.097656 10.734375 7.042969 10.566406 C 6.960938 10.335938 6.921875 10.257812 6.863281 10.246094 C 6.503906 10.171875 4.058594 9.640625 3.53125 9.523438 C 1.492188 9.082031 0.90625 8.960938 0.859375 8.960938 C 0.832031 8.960938 0.796875 8.988281 0.785156 9.019531 Z M 0.785156 9.019531 "/>
<path style=" stroke:none;fill-rule:nonzero;fill:rgb(0%,0%,0%);fill-opacity:1;" d="M 0.496094 11.066406 C 0.484375 11.078125 0.472656 11.339844 0.472656 11.648438 C 0.472656 12.070312 0.484375 12.207031 0.519531 12.207031 C 0.542969 12.207031 1.554688 12.167969 2.765625 12.117188 C 3.980469 12.070312 5.59375 12.015625 6.351562 11.992188 C 7.113281 11.96875 7.757812 11.945312 7.785156 11.9375 C 7.8125 11.929688 7.769531 11.851562 7.660156 11.722656 C 7.570312 11.609375 7.472656 11.492188 7.449219 11.460938 C 7.410156 11.414062 7.285156 11.402344 6.804688 11.378906 C 6.476562 11.371094 5.789062 11.335938 5.277344 11.304688 C 4.769531 11.277344 3.84375 11.230469 3.222656 11.199219 C 1.769531 11.128906 0.859375 11.082031 0.667969 11.058594 C 0.585938 11.050781 0.507812 11.054688 0.496094 11.066406 Z M 0.496094 11.066406 "/>
<path style=" stroke:none;fill-rule:nonzero;fill:rgb(0%,0%,0%);fill-opacity:1;" d="M 23.355469 11.0625 C 23.242188 11.082031 20.160156 11.242188 18.332031 11.324219 C 16.734375 11.398438 16.691406 11.402344 16.636719 11.476562 C 16.609375 11.519531 16.515625 11.636719 16.429688 11.746094 C 16.347656 11.851562 16.28125 11.945312 16.285156 11.949219 C 16.289062 11.949219 16.847656 11.96875 17.53125 11.992188 C 18.210938 12.015625 19.792969 12.070312 21.039062 12.117188 C 22.289062 12.167969 23.382812 12.207031 23.46875 12.207031 L 23.628906 12.207031 L 23.628906 11.042969 L 23.53125 11.046875 C 23.472656 11.046875 23.394531 11.054688 23.355469 11.0625 Z M 23.355469 11.0625 "/>
<path style=" stroke:none;fill-rule:nonzero;fill:rgb(0%,0%,0%);fill-opacity:1;" d="M 7.261719 12.472656 C 7.003906 12.5 5.867188 12.617188 4.734375 12.734375 C 3.601562 12.851562 2.234375 12.996094 1.691406 13.050781 C 1.152344 13.113281 0.6875 13.15625 0.667969 13.15625 C 0.640625 13.15625 0.617188 13.199219 0.617188 13.25 C 0.617188 13.375 0.796875 14.226562 0.832031 14.261719 C 0.847656 14.277344 1.59375 14.144531 2.496094 13.96875 C 4.164062 13.644531 6.78125 13.15625 7.699219 12.992188 C 7.980469 12.945312 8.21875 12.902344 8.222656 12.894531 C 8.230469 12.886719 8.195312 12.78125 8.148438 12.65625 L 8.0625 12.433594 L 7.902344 12.429688 C 7.808594 12.429688 7.527344 12.445312 7.261719 12.472656 Z M 7.261719 12.472656 "/>
<path style=" stroke:none;fill-rule:nonzero;fill:rgb(0%,0%,0%);fill-opacity:1;" d="M 15.910156 12.652344 C 15.871094 12.78125 15.839844 12.894531 15.847656 12.902344 C 15.855469 12.90625 16.089844 12.949219 16.367188 13 C 16.644531 13.046875 17.078125 13.125 17.332031 13.175781 C 17.582031 13.226562 18.308594 13.363281 18.949219 13.480469 C 19.589844 13.59375 20.265625 13.71875 20.441406 13.757812 C 21.015625 13.875 23.273438 14.289062 23.28125 14.28125 C 23.296875 14.265625 23.46875 13.511719 23.5 13.324219 C 23.515625 13.230469 23.507812 13.1875 23.476562 13.175781 C 23.449219 13.167969 22.8125 13.097656 22.0625 13.019531 C 20.820312 12.890625 20.371094 12.84375 18.769531 12.683594 C 17.355469 12.539062 16.105469 12.417969 16.050781 12.417969 C 16 12.417969 15.96875 12.476562 15.910156 12.652344 Z M 15.910156 12.652344 "/>
<path style=" stroke:none;fill-rule:nonzero;fill:rgb(0%,0%,0%);fill-opacity:1;" d="M 7.628906 13.523438 C 5.203125 14.121094 1.230469 15.171875 1.152344 15.238281 C 1.121094 15.265625 1.472656 16.179688 1.542969 16.25 C 1.574219 16.285156 1.675781 16.257812 1.964844 16.148438 C 2.773438 15.847656 5.675781 14.828125 7.65625 14.140625 C 8.171875 13.964844 8.203125 13.953125 8.289062 13.8125 C 8.339844 13.734375 8.417969 13.632812 8.457031 13.59375 C 8.519531 13.523438 8.527344 13.496094 8.492188 13.421875 C 8.46875 13.375 8.4375 13.335938 8.421875 13.335938 C 8.402344 13.335938 8.050781 13.421875 7.628906 13.523438 Z M 7.628906 13.523438 "/>
<path style=" stroke:none;fill-rule:nonzero;fill:rgb(0%,0%,0%);fill-opacity:1;" d="M 15.648438 13.429688 C 15.640625 13.488281 15.675781 13.605469 15.746094 13.730469 L 15.855469 13.929688 L 16.417969 14.121094 C 16.996094 14.320312 18.070312 14.691406 19.496094 15.195312 C 19.9375 15.351562 20.566406 15.574219 20.898438 15.691406 C 21.230469 15.808594 21.71875 15.984375 21.988281 16.082031 C 22.253906 16.179688 22.492188 16.261719 22.519531 16.261719 C 22.589844 16.261719 23 15.285156 22.949219 15.234375 C 22.867188 15.15625 15.886719 13.335938 15.675781 13.335938 C 15.667969 13.335938 15.65625 13.375 15.648438 13.429688 Z M 15.648438 13.429688 "/>
</g>
</svg>
