<?xml version="1.0" encoding="UTF-8"?>
<svg xmlns="http://www.w3.org/2000/svg" xmlns:xlink="http://www.w3.org/1999/xlink" width="24px" height="24px" viewBox="0 0 24 23" version="1.1">
<g id="surface1">
<path style=" stroke:none;fill-rule:nonzero;fill:rgb(0%,0%,0%);fill-opacity:1;" d="M 11.246094 0.152344 C 10.070312 0.25 8.839844 0.527344 7.785156 0.933594 C 4.738281 2.109375 2.253906 4.625 1.1875 7.628906 C 0.410156 9.804688 0.339844 12.179688 0.984375 14.335938 C 1.441406 15.875 2.363281 17.445312 3.460938 18.570312 L 3.820312 18.933594 L 3.980469 18.800781 C 4.074219 18.726562 4.242188 18.617188 4.363281 18.558594 C 4.484375 18.5 4.585938 18.449219 4.59375 18.445312 C 4.601562 18.441406 4.441406 18.265625 4.238281 18.054688 C 2.859375 16.609375 2.027344 15.035156 1.652344 13.144531 C 1.417969 11.976562 1.433594 10.417969 1.683594 9.226562 C 1.929688 8.082031 2.433594 6.847656 3.046875 5.902344 C 3.882812 4.621094 5.203125 3.339844 6.515625 2.550781 C 8.222656 1.523438 10.023438 1.03125 12.125 1.027344 C 13.441406 1.023438 14.417969 1.167969 15.59375 1.550781 C 17.078125 2.03125 18.421875 2.820312 19.554688 3.875 C 21.40625 5.605469 22.484375 7.734375 22.78125 10.242188 C 22.851562 10.878906 22.835938 12.074219 22.742188 12.679688 C 22.511719 14.1875 21.988281 15.511719 21.128906 16.761719 C 20.734375 17.332031 20.609375 17.488281 20.078125 18.054688 C 19.882812 18.265625 19.726562 18.441406 19.734375 18.449219 C 19.742188 18.453125 19.8125 18.484375 19.882812 18.507812 C 19.957031 18.539062 20.125 18.648438 20.261719 18.746094 L 20.511719 18.929688 L 20.753906 18.671875 C 22.207031 17.132812 23.148438 15.359375 23.539062 13.421875 C 23.707031 12.582031 23.734375 12.28125 23.730469 11.285156 C 23.730469 10.503906 23.714844 10.230469 23.640625 9.738281 C 23.285156 7.332031 22.238281 5.261719 20.5 3.527344 C 19.582031 2.605469 18.753906 2.007812 17.585938 1.402344 C 15.707031 0.4375 13.382812 -0.0234375 11.246094 0.152344 Z M 11.246094 0.152344 "/>
<path style=" stroke:none;fill-rule:nonzero;fill:rgb(0%,0%,0%);fill-opacity:1;" d="M 11.339844 2.046875 C 9.5 2.21875 7.859375 2.820312 6.421875 3.851562 C 4.386719 5.308594 3.023438 7.488281 2.625 9.925781 C 2.542969 10.433594 2.507812 11.6875 2.566406 12.21875 C 2.753906 14 3.574219 15.828125 4.742188 17.058594 L 4.9375 17.273438 L 5.277344 16.964844 L 5.613281 16.652344 L 5.476562 16.507812 C 4.703125 15.699219 4.023438 14.46875 3.71875 13.308594 C 3.527344 12.59375 3.480469 12.273438 3.460938 11.488281 C 3.421875 10.070312 3.671875 8.964844 4.3125 7.683594 C 5.066406 6.183594 6.207031 4.972656 7.703125 4.097656 C 8.691406 3.519531 9.765625 3.152344 10.910156 2.996094 C 11.25 2.953125 11.417969 2.910156 11.601562 2.824219 C 11.773438 2.742188 11.910156 2.703125 12.105469 2.6875 C 12.359375 2.675781 12.398438 2.679688 12.65625 2.804688 C 12.867188 2.90625 13.015625 2.949219 13.277344 2.980469 C 14.34375 3.105469 15.503906 3.472656 16.398438 3.964844 C 17.183594 4.398438 17.761719 4.832031 18.414062 5.480469 C 19.703125 6.761719 20.507812 8.339844 20.792969 10.128906 C 20.882812 10.722656 20.882812 11.902344 20.792969 12.4375 C 20.539062 13.902344 19.925781 15.234375 19.003906 16.332031 L 18.722656 16.660156 L 19.039062 16.953125 C 19.214844 17.113281 19.375 17.242188 19.390625 17.242188 C 19.449219 17.242188 20.015625 16.550781 20.3125 16.105469 C 21.019531 15.058594 21.5 13.835938 21.703125 12.570312 C 21.792969 12.035156 21.816406 11.019531 21.765625 10.464844 C 21.554688 8.316406 20.574219 6.285156 19.003906 4.765625 C 17.78125 3.582031 16.246094 2.730469 14.570312 2.308594 C 13.660156 2.078125 12.25 1.964844 11.339844 2.046875 Z M 11.339844 2.046875 "/>
<path style=" stroke:none;fill-rule:nonzero;fill:rgb(0%,0%,0%);fill-opacity:1;" d="M 11.820312 3.03125 C 11.546875 3.152344 11.34375 3.460938 11.339844 3.757812 C 11.339844 3.960938 11.460938 4.207031 11.625 4.351562 C 11.75 4.453125 11.757812 4.457031 12.152344 4.449219 C 12.613281 4.441406 12.703125 4.402344 12.855469 4.15625 C 13.183594 3.609375 12.804688 2.980469 12.144531 2.984375 C 12.03125 2.984375 11.886719 3.003906 11.820312 3.03125 Z M 11.820312 3.03125 "/>
<path style=" stroke:none;fill-rule:nonzero;fill:rgb(0%,0%,0%);fill-opacity:1;" d="M 11.773438 4.765625 C 11.113281 4.882812 10.605469 5.277344 10.378906 5.839844 C 10.3125 6.007812 10.292969 6.15625 10.277344 6.523438 C 10.265625 6.90625 10.25 7 10.203125 7 C 10.175781 7 10.109375 7.042969 10.058594 7.09375 C 9.914062 7.230469 9.925781 7.476562 10.097656 7.8125 C 10.253906 8.113281 10.414062 8.265625 10.574219 8.265625 C 10.675781 8.265625 10.695312 8.285156 10.730469 8.425781 C 10.851562 8.859375 11.097656 9.179688 11.445312 9.359375 C 11.933594 9.605469 12.359375 9.621094 12.804688 9.398438 C 13.179688 9.21875 13.375 8.988281 13.527344 8.566406 C 13.625 8.308594 13.640625 8.285156 13.757812 8.261719 C 14.0625 8.199219 14.433594 7.511719 14.328125 7.207031 C 14.289062 7.09375 14.175781 7.007812 14.089844 7.03125 C 14.074219 7.035156 14.0625 6.847656 14.0625 6.617188 C 14.0625 6.007812 13.953125 5.695312 13.625 5.335938 C 13.28125 4.96875 12.855469 4.78125 12.289062 4.753906 C 12.113281 4.742188 11.886719 4.75 11.773438 4.765625 Z M 11.773438 4.765625 "/>
<path style=" stroke:none;fill-rule:nonzero;fill:rgb(0%,0%,0%);fill-opacity:1;" d="M 11.0625 9.523438 C 11.050781 9.539062 11.023438 9.65625 10.996094 9.78125 C 10.929688 10.109375 10.820312 10.273438 10.574219 10.421875 C 10.296875 10.582031 10.082031 10.640625 9.585938 10.6875 C 8.472656 10.796875 8.144531 10.945312 7.878906 11.460938 C 7.742188 11.726562 7.710938 11.914062 7.644531 12.738281 C 7.558594 13.8125 7.484375 14.605469 7.375 15.511719 C 7.261719 16.457031 7.261719 17.253906 7.371094 17.460938 C 7.472656 17.648438 8.109375 18.242188 8.324219 18.34375 C 8.839844 18.597656 10.121094 19.398438 10.289062 19.574219 C 10.894531 20.199219 11.132812 20.355469 11.65625 20.460938 C 12.195312 20.566406 12.6875 20.511719 13.164062 20.292969 C 13.359375 20.203125 13.515625 20.085938 13.832031 19.777344 C 14.183594 19.441406 14.339844 19.324219 14.925781 18.96875 C 15.304688 18.742188 15.75 18.484375 15.917969 18.394531 C 16.25 18.21875 16.832031 17.699219 16.949219 17.472656 C 17.074219 17.238281 17.066406 16.472656 16.9375 15.285156 C 16.785156 13.941406 16.792969 13.992188 16.703125 12.902344 C 16.660156 12.390625 16.605469 11.882812 16.574219 11.777344 C 16.5 11.511719 16.363281 11.296875 16.140625 11.09375 C 15.875 10.851562 15.640625 10.777344 14.925781 10.707031 C 14.269531 10.644531 13.917969 10.554688 13.6875 10.394531 C 13.472656 10.242188 13.378906 10.101562 13.304688 9.804688 C 13.273438 9.667969 13.234375 9.539062 13.21875 9.523438 C 13.203125 9.507812 13.113281 9.539062 13.023438 9.589844 C 12.796875 9.714844 12.40625 9.832031 12.199219 9.832031 C 11.941406 9.832031 11.652344 9.761719 11.378906 9.628906 C 11.242188 9.566406 11.117188 9.511719 11.101562 9.503906 C 11.09375 9.496094 11.074219 9.507812 11.0625 9.523438 Z M 9.238281 14.4375 C 9.363281 14.726562 9.496094 15.136719 9.664062 15.773438 C 9.816406 16.339844 9.820312 16.394531 9.832031 17.015625 L 9.84375 17.664062 L 9.96875 17.789062 C 10.039062 17.859375 10.304688 18.085938 10.558594 18.285156 L 11.023438 18.648438 L 11.441406 18.664062 C 11.71875 18.679688 11.902344 18.707031 11.996094 18.75 C 12.125 18.8125 12.140625 18.8125 12.320312 18.75 C 12.429688 18.714844 12.679688 18.675781 12.898438 18.664062 L 13.292969 18.648438 L 13.78125 18.265625 C 14.054688 18.054688 14.320312 17.835938 14.378906 17.773438 L 14.484375 17.664062 L 14.492188 17.035156 C 14.5 16.496094 14.519531 16.339844 14.613281 15.957031 C 14.753906 15.363281 14.960938 14.703125 15.082031 14.449219 L 15.183594 14.246094 L 15.273438 14.746094 C 15.324219 15.023438 15.433594 15.589844 15.515625 16.003906 C 15.628906 16.546875 15.660156 16.78125 15.636719 16.847656 C 15.570312 17.011719 14.710938 17.871094 14.191406 18.296875 C 13.414062 18.921875 13.449219 18.902344 12.960938 18.9375 C 12.683594 18.957031 12.488281 18.988281 12.367188 19.039062 C 12.269531 19.078125 12.152344 19.105469 12.117188 19.09375 C 12.082031 19.082031 11.980469 19.050781 11.894531 19.019531 C 11.8125 18.988281 11.570312 18.953125 11.359375 18.9375 C 11.148438 18.921875 10.945312 18.894531 10.910156 18.878906 C 10.589844 18.714844 9.320312 17.59375 8.886719 17.082031 C 8.660156 16.820312 8.65625 16.765625 8.789062 16.152344 C 8.839844 15.925781 8.9375 15.402344 9.007812 14.996094 C 9.074219 14.59375 9.136719 14.261719 9.144531 14.261719 C 9.152344 14.261719 9.195312 14.339844 9.238281 14.4375 Z M 9.238281 14.4375 "/>
<path style=" stroke:none;fill-rule:nonzero;fill:rgb(0%,0%,0%);fill-opacity:1;" d="M 5.578125 18.582031 C 5.226562 18.625 4.84375 18.679688 4.734375 18.714844 C 4.34375 18.820312 3.964844 19.15625 3.871094 19.46875 C 3.851562 19.542969 3.832031 19.726562 3.832031 19.875 C 3.832031 20.257812 3.9375 20.5 4.222656 20.804688 C 4.605469 21.199219 5.167969 21.410156 5.859375 21.417969 C 6.019531 21.417969 6.289062 21.4375 6.457031 21.453125 C 6.625 21.46875 7.03125 21.503906 7.355469 21.527344 C 7.683594 21.546875 8.128906 21.59375 8.347656 21.621094 C 8.644531 21.660156 9.171875 21.675781 10.371094 21.675781 L 11.992188 21.675781 L 11.992188 20.796875 L 11.660156 20.734375 C 11.074219 20.628906 10.699219 20.40625 10.179688 19.851562 C 9.847656 19.5 8.410156 18.648438 8.042969 18.582031 C 7.933594 18.5625 7.476562 18.539062 7.03125 18.527344 C 6.398438 18.515625 6.089844 18.527344 5.578125 18.582031 Z M 5.578125 18.582031 "/>
<path style=" stroke:none;fill-rule:nonzero;fill:rgb(0%,0%,0%);fill-opacity:1;" d="M 16.472656 18.5625 C 16.078125 18.605469 16.058594 18.617188 15.25 19.097656 C 14.546875 19.519531 14.316406 19.683594 13.945312 20.042969 C 13.511719 20.464844 13.1875 20.640625 12.675781 20.734375 L 12.347656 20.796875 L 12.320312 21.09375 C 12.308594 21.261719 12.296875 21.457031 12.296875 21.535156 L 12.296875 21.679688 L 14.035156 21.667969 C 15.355469 21.65625 15.886719 21.640625 16.28125 21.59375 C 16.839844 21.527344 17.554688 21.464844 18.410156 21.414062 C 19.234375 21.363281 19.648438 21.226562 20.019531 20.886719 C 20.402344 20.539062 20.589844 20.007812 20.496094 19.566406 C 20.417969 19.199219 20.046875 18.832031 19.628906 18.710938 C 19.363281 18.632812 17.929688 18.507812 17.339844 18.511719 C 17.0625 18.515625 16.671875 18.535156 16.472656 18.5625 Z M 16.472656 18.5625 "/>
<path style=" stroke:none;fill-rule:nonzero;fill:rgb(0%,0%,0%);fill-opacity:1;" d="M 8.9375 21.960938 C 8.855469 21.992188 8.886719 22.074219 8.996094 22.113281 C 9.25 22.214844 10.132812 22.390625 10.84375 22.484375 C 11.429688 22.558594 12.792969 22.566406 13.351562 22.496094 C 13.789062 22.445312 14.777344 22.257812 15.101562 22.167969 C 15.320312 22.113281 15.441406 22.03125 15.386719 21.980469 C 15.351562 21.949219 9.011719 21.925781 8.9375 21.960938 Z M 8.9375 21.960938 "/>
</g>
</svg>
